<svg width="21" height="20" viewBox="0 0 21 20" fill="none" xmlns="http://www.w3.org/2000/svg">
<path d="M18.9352 1.3H2.06484C0.930913 1.3 0 2.25687 0 3.42242V16.9306C0 18.0961 0.930913 19.053 2.06484 19.053H18.9352C20.0691 19.053 21 18.0961 21 16.9306V3.42242C21 2.25687 20.0691 1.3 18.9352 1.3ZM10.1658 14.9965C6.95213 14.9965 4.34756 12.8181 4.34756 10.1358C4.34756 7.4535 6.95213 5.27509 10.1658 5.27509C13.3794 5.27509 15.984 7.4535 15.984 10.1358C15.984 12.8181 13.3794 14.9965 10.1658 14.9965ZM16.9644 7.06668C16.3999 7.06668 15.9394 6.59333 15.9394 6.0131C15.9394 5.43287 16.3999 4.95952 16.9644 4.95952C17.5289 4.95952 17.9894 5.43287 17.9894 6.0131C17.9894 6.59333 17.5289 7.06668 16.9644 7.06668Z" fill="#408AFA"/>
<path d="M18.3622 0H15.4556C15.204 0 15 0.209645 15 0.468256C15 0.726867 15.204 0.936512 15.4556 0.936512H18.3622C18.6138 0.936512 18.8177 0.726867 18.8177 0.468256C18.8177 0.209645 18.6138 0 18.3622 0Z" fill="#408AFA"/>
</svg>
