<svg width="23" height="18" viewBox="0 0 23 18" fill="none" xmlns="http://www.w3.org/2000/svg">
<path d="M16.6209 10.2696L22.8287 10.5663C22.9413 10.0576 23.0049 9.53468 23.0049 9.00236C23 4.02774 17.8546 0 11.5 0C5.14538 0 0 4.02774 0 8.99764C0 10.8914 0.749042 12.6438 2.02192 14.09C2.09536 14.1748 2.13453 14.2973 2.11494 14.4198C2.03661 14.938 1.88974 15.4938 1.63516 15.9791C0.891017 17.3923 0 17.9953 0 17.9953L6.0364 16.9919C6.12452 16.9778 6.21264 16.9919 6.29587 17.0202C7.8576 17.642 9.62495 17.9953 11.5 17.9953C15.8865 17.9953 19.6954 16.0733 21.6341 13.2515C19.6611 13.0678 17.9525 12.168 16.616 10.2649L16.6209 10.2696Z" fill="#408AFA"/>
</svg>
