<svg width="24" height="20" viewBox="0 0 24 20" fill="none" xmlns="http://www.w3.org/2000/svg">
<path d="M23.7559 10.5516C23.736 10.678 23.7111 10.8096 23.6812 10.936C22.7001 15.1596 16.679 17.3295 10.2245 15.7868C5.74723 14.7145 2.2411 12.1348 0.841644 9.24658C0.298793 10.1419 -0.00500488 11.1181 -0.00500488 12.1449C-0.00500488 16.4848 5.36872 20.0002 11.9975 20.0002C18.6262 20.0002 24 16.4848 24 12.1449C24 11.5986 23.9153 11.0675 23.7559 10.5566V10.5516Z" fill="#408AFA"/>
<path d="M12.0025 4.28947C17.7996 4.28947 22.6354 6.98041 23.756 10.5515C24.3935 6.43413 20.0307 1.99306 13.7755 0.49584C7.32103 -1.0469 1.29986 1.12305 0.318747 5.34662C0.0199297 6.63646 0.229102 7.97181 0.846657 9.24647C2.60968 6.34308 6.93755 4.28947 12.0025 4.28947Z" fill="#408AFA"/>
</svg>
