<svg width="19" height="20" viewBox="0 0 19 20" fill="none" xmlns="http://www.w3.org/2000/svg">
<path d="M12.8486 0.150391H6.14943C2.7636 0.150391 -0.000976562 2.91497 -0.000976562 6.3008V13C-0.000976562 16.3858 2.7636 19.1504 6.14943 19.1504H12.8486C16.2344 19.1504 18.999 16.3858 18.999 13V6.3008C18.999 2.91497 16.2344 0.150391 12.8486 0.150391ZM14.3914 14.0872H4.60665C4.18213 14.0872 3.83009 13.7351 3.83009 13.3106C3.83009 12.8861 4.18213 12.534 4.60665 12.534H14.4017C14.8263 12.534 15.1783 12.8861 15.1783 13.3106C15.1783 13.7351 14.8263 14.0872 14.4017 14.0872H14.3914ZM14.3914 10.7221H4.60665C4.18213 10.7221 3.83009 10.37 3.83009 9.94549C3.83009 9.52096 4.18213 9.16892 4.60665 9.16892H14.4017C14.8263 9.16892 15.1783 9.52096 15.1783 9.94549C15.1783 10.37 14.8263 10.7221 14.4017 10.7221H14.3914ZM14.3914 7.35693H4.60665C4.18213 7.35693 3.83009 7.00489 3.83009 6.58036C3.83009 6.15584 4.18213 5.8038 4.60665 5.8038H14.4017C14.8263 5.8038 15.1783 6.15584 15.1783 6.58036C15.1783 7.00489 14.8263 7.35693 14.4017 7.35693H14.3914Z" fill="url(#paint0_linear_0_269)"/>
<defs>
<linearGradient id="paint0_linear_0_269" x1="-1.47063" y1="0.150391" x2="18.999" y2="20.62" gradientUnits="userSpaceOnUse">
<stop offset="0.423077" stop-color="#408AFA"/>
<stop offset="0.826923" stop-color="white"/>
</linearGradient>
</defs>
</svg>
