<svg width="20" height="20" viewBox="0 0 20 20" fill="none" xmlns="http://www.w3.org/2000/svg">
<path d="M13.5249 0.150391H6.47314C2.90911 0.150391 -0.000976562 2.91497 -0.000976562 6.3008V13C-0.000976562 16.3858 2.90911 19.1504 6.47314 19.1504H13.5249C17.0889 19.1504 19.999 16.3858 19.999 13V6.3008C19.999 2.91497 17.0889 0.150391 13.5249 0.150391ZM15.1489 14.0872H4.84916C4.40229 14.0872 4.03172 13.7351 4.03172 13.3106C4.03172 12.8861 4.40229 12.534 4.84916 12.534H15.1598C15.6067 12.534 15.9772 12.8861 15.9772 13.3106C15.9772 13.7351 15.6067 14.0872 15.1598 14.0872H15.1489ZM15.1489 10.7221H4.84916C4.40229 10.7221 4.03172 10.37 4.03172 9.94549C4.03172 9.52096 4.40229 9.16892 4.84916 9.16892H15.1598C15.6067 9.16892 15.9772 9.52096 15.9772 9.94549C15.9772 10.37 15.6067 10.7221 15.1598 10.7221H15.1489ZM15.1489 7.35693H4.84916C4.40229 7.35693 4.03172 7.00489 4.03172 6.58036C4.03172 6.15584 4.40229 5.8038 4.84916 5.8038H15.1598C15.6067 5.8038 15.9772 6.15584 15.9772 6.58036C15.9772 7.00489 15.6067 7.35693 15.1598 7.35693H15.1489Z" fill="url(#paint0_linear_0_270)"/>
<defs>
<linearGradient id="paint0_linear_0_270" x1="0.10159" y1="2.86468" x2="18.9793" y2="22.736" gradientUnits="userSpaceOnUse">
<stop offset="0.365385" stop-color="#F84B1F"/>
<stop offset="0.793269" stop-color="white"/>
</linearGradient>
</defs>
</svg>
