<svg width="24" height="7" viewBox="0 0 24 7" fill="none" xmlns="http://www.w3.org/2000/svg">
<path d="M3.55995 6.08163C4.9901 6.08163 6.14947 4.92226 6.14947 3.49211C6.14947 2.06196 4.9901 0.902588 3.55995 0.902588C2.1298 0.902588 0.970428 2.06196 0.970428 3.49211C0.970428 4.92226 2.1298 6.08163 3.55995 6.08163Z" fill="#DBDBDB"/>
<path d="M12.4794 6.08163C13.9095 6.08163 15.0689 4.92226 15.0689 3.49211C15.0689 2.06196 13.9095 0.902588 12.4794 0.902588C11.0492 0.902588 9.88983 2.06196 9.88983 3.49211C9.88983 4.92226 11.0492 6.08163 12.4794 6.08163Z" fill="#DBDBDB"/>
<path d="M21.3988 6.08163C22.8289 6.08163 23.9883 4.92226 23.9883 3.49211C23.9883 2.06196 22.8289 0.902588 21.3988 0.902588C19.9686 0.902588 18.8093 2.06196 18.8093 3.49211C18.8093 4.92226 19.9686 6.08163 21.3988 6.08163Z" fill="#DBDBDB"/>
</svg>
