<svg width="21" height="18" viewBox="0 0 21 18" fill="none" xmlns="http://www.w3.org/2000/svg">
<path d="M10.499 0.150391C4.70145 0.150391 -0.000976562 3.95536 -0.000976562 8.65039C-0.000976562 10.4394 0.682934 12.0949 1.84513 13.4611C1.91218 13.5412 1.94794 13.6569 1.93006 13.7726C1.85854 14.2622 1.72444 14.7873 1.492 15.2457C0.812566 16.5808 -0.000976562 17.1504 -0.000976562 17.1504L5.51052 16.2025C5.59098 16.1891 5.67144 16.2025 5.74743 16.2292C7.17335 16.8166 8.78702 17.1504 10.499 17.1504C16.2966 17.1504 20.999 13.3454 20.999 8.65039C20.999 3.95536 16.2966 0.150391 10.499 0.150391Z" fill="url(#paint0_linear_0_274)"/>
<defs>
<linearGradient id="paint0_linear_0_274" x1="-0.00097658" y1="2.98372" x2="21.1513" y2="16.9193" gradientUnits="userSpaceOnUse">
<stop offset="0.427885" stop-color="#6DC59D"/>
<stop offset="0.860577" stop-color="#ECF5C0"/>
</linearGradient>
</defs>
</svg>
